<?xml version="1.0" encoding="UTF-8" standalone="no"?>
<svg width="30px" height="20px" viewBox="0 0 30 20" version="1.1" xmlns="http://www.w3.org/2000/svg" xmlns:xlink="http://www.w3.org/1999/xlink">
    <!-- Generator: sketchtool 3.6.1 (26313) - http://www.bohemiancoding.com/sketch -->
    <title>AMEX</title>
    <desc>Created with sketchtool.</desc>
    <defs></defs>
    <g id="Redesigned" stroke="none" stroke-width="1" fill="none" fill-rule="evenodd">
        <g id="04-Contact---Desktop-HD" transform="translate(-1102.000000, -320.000000)">
            <g id="Redesign">
                <g id="Payment-details" transform="translate(0.000000, 236.000000)">
                    <g id="Fields" transform="translate(222.000000, 80.000000)">
                        <g id="Payment" transform="translate(530.000000, 0.000000)">
                            <g id="Title">
                                <g id="Card-Types" transform="translate(269.000000, 4.000000)">
                                    <g id="AMEX" transform="translate(80.361991, 0.000000)">
                                        <g id="Group">
                                            <path d="M30.638009,17.5 C30.638009,18.875 29.513009,20 28.138009,20 L3.13800905,20 C1.76300905,20 0.63800905,18.875 0.63800905,17.5 L0.63800905,2.5 C0.63800905,1.125 1.76300905,0 3.13800905,0 L28.138009,0 C29.513009,0 30.638009,1.125 30.638009,2.5 L30.638009,17.5 L30.638009,17.5 Z" id="Shape" fill="#39B6EE"></path>
                                            <g transform="translate(5.524887, 7.500000)" id="Shape" fill="#FFFFFF">
                                                <path d="M3.66902715,4.961 L3.43949321,4.091 L1.92517195,4.091 L1.6891086,4.961 L0.305375566,4.961 L1.82622624,0.302 L3.50629412,0.302 L5.04572851,4.961 L3.66902715,4.961 L3.66902715,4.961 Z M3.17831674,3.0625 L2.97741176,2.301 C2.9301991,2.132 2.8739457,1.9135 2.80664253,1.6445 C2.73984163,1.3755 2.69564253,1.183 2.67404525,1.067 C2.65546154,1.175 2.61728959,1.3525 2.5610362,1.6 C2.50478281,1.8475 2.37971946,2.3355 2.18634842,3.063 L3.17831674,3.0625 L3.17831674,3.0625 L3.17831674,3.0625 Z"></path>
                                                <path d="M7.58114932,4.961 L6.6278552,1.6185 L6.59922624,1.6185 C6.6439276,2.1875 6.66602715,2.6295 6.66602715,2.9455 L6.66602715,4.9605 L5.55050226,4.9605 L5.55050226,0.32 L7.2270543,0.32 L8.19993665,3.615 L8.22555204,3.615 L9.17834389,0.32 L10.858914,0.32 L10.858914,4.9605 L9.7011991,4.9605 L9.7011991,2.926 C9.7011991,2.8205 9.70320814,2.7035 9.70622172,2.574 C9.70923529,2.4445 9.7238009,2.1285 9.74941629,1.625 L9.72078733,1.625 L8.78004977,4.961 L7.58114932,4.961 L7.58114932,4.961 Z"></path>
                                                <path d="M14.4998145,4.961 L11.7323484,4.961 L11.7323484,0.3205 L14.4998145,0.3205 L14.4998145,1.327 L12.9910181,1.327 L12.9910181,2.057 L14.38781,2.057 L14.38781,3.063 L12.9910181,3.063 L12.9910181,3.939 L14.4998145,3.939 L14.4998145,4.961 L14.4998145,4.961 Z"></path>
                                                <path d="M19.514905,4.961 L18.0583439,4.961 L17.1487466,3.511 L16.2501991,4.961 L14.8247783,4.961 L16.3707421,2.587 L14.9166923,0.3205 L16.3134842,0.3205 L17.155276,1.755 L17.9644208,0.3205 L19.4023982,0.3205 L17.9262489,2.685 L19.514905,4.961 L19.514905,4.961 Z"></path>
                                            </g>
                                            <g transform="translate(5.524887, 7.500000)" id="Shape" fill="#FFFFFF">
                                                <path d="M3.66902715,4.961 L3.43949321,4.091 L1.92517195,4.091 L1.6891086,4.961 L0.305375566,4.961 L1.82622624,0.302 L3.50629412,0.302 L5.04572851,4.961 L3.66902715,4.961 L3.66902715,4.961 Z M3.17831674,3.0625 L2.97741176,2.301 C2.9301991,2.132 2.8739457,1.9135 2.80664253,1.6445 C2.73984163,1.3755 2.69564253,1.183 2.67404525,1.067 C2.65546154,1.175 2.61728959,1.3525 2.5610362,1.6 C2.50478281,1.8475 2.37971946,2.3355 2.18634842,3.063 L3.17831674,3.0625 L3.17831674,3.0625 L3.17831674,3.0625 Z"></path>
                                                <path d="M7.58114932,4.961 L6.6278552,1.6185 L6.59922624,1.6185 C6.6439276,2.1875 6.66602715,2.6295 6.66602715,2.9455 L6.66602715,4.9605 L5.55050226,4.9605 L5.55050226,0.32 L7.2270543,0.32 L8.19993665,3.615 L8.22555204,3.615 L9.17834389,0.32 L10.858914,0.32 L10.858914,4.9605 L9.7011991,4.9605 L9.7011991,2.926 C9.7011991,2.8205 9.70320814,2.7035 9.70622172,2.574 C9.70923529,2.4445 9.7238009,2.1285 9.74941629,1.625 L9.72078733,1.625 L8.78004977,4.961 L7.58114932,4.961 L7.58114932,4.961 Z"></path>
                                                <path d="M14.4998145,4.961 L11.7323484,4.961 L11.7323484,0.3205 L14.4998145,0.3205 L14.4998145,1.327 L12.9910181,1.327 L12.9910181,2.057 L14.38781,2.057 L14.38781,3.063 L12.9910181,3.063 L12.9910181,3.939 L14.4998145,3.939 L14.4998145,4.961 L14.4998145,4.961 Z"></path>
                                                <path d="M19.514905,4.961 L18.0583439,4.961 L17.1487466,3.511 L16.2501991,4.961 L14.8247783,4.961 L16.3707421,2.587 L14.9166923,0.3205 L16.3134842,0.3205 L17.155276,1.755 L17.9644208,0.3205 L19.4023982,0.3205 L17.9262489,2.685 L19.514905,4.961 L19.514905,4.961 Z"></path>
                                            </g>
                                        </g>
                                    </g>
                                </g>
                            </g>
                        </g>
                    </g>
                </g>
            </g>
        </g>
    </g>
</svg>