<?xml version="1.0" encoding="UTF-8" standalone="no"?>
<svg width="30px" height="20px" viewBox="0 0 30 20" version="1.1" xmlns="http://www.w3.org/2000/svg" xmlns:xlink="http://www.w3.org/1999/xlink">
    <!-- Generator: sketchtool 3.6.1 (26313) - http://www.bohemiancoding.com/sketch -->
    <title>MASTERCARD</title>
    <desc>Created with sketchtool.</desc>
    <defs></defs>
    <g id="Redesigned" stroke="none" stroke-width="1" fill="none" fill-rule="evenodd">
        <g id="04-Contact---Desktop-HD" transform="translate(-1061.000000, -320.000000)">
            <g id="Redesign">
                <g id="Payment-details" transform="translate(0.000000, 236.000000)">
                    <g id="Fields" transform="translate(222.000000, 80.000000)">
                        <g id="Payment" transform="translate(530.000000, 0.000000)">
                            <g id="Title">
                                <g id="Card-Types" transform="translate(269.000000, 4.000000)">
                                    <g id="MASTERCARD" transform="translate(39.180995, 0.000000)">
                                        <path d="M30.8190045,17.5 C30.8190045,18.875 29.6940045,20 28.3190045,20 L3.31900452,20 C1.94400452,20 0.819004525,18.875 0.819004525,17.5 L0.819004525,2.5 C0.819004525,1.125 1.94400452,0 3.31900452,0 L28.3190045,0 C29.6940045,0 30.8190045,1.125 30.8190045,2.5 L30.8190045,17.5 L30.8190045,17.5 Z" id="Shape" fill="#495DB5"></path>
                                        <g id="Group" transform="translate(6.819005, 5.000000)">
                                            <path d="M5.14819005,0 C2.37469683,0 0.125565611,2.2385 0.125565611,5 C0.125565611,7.7605 2.37469683,10 5.14819005,10 C6.64995475,10 7.99451131,9.34 8.91515837,8.2995 C8.13564706,7.4185 7.65950226,6.267 7.65950226,5 C7.65950226,3.733 8.13564706,2.581 8.91515837,1.7 C7.99451131,0.66 6.64995475,0 5.14819005,0 Z" id="Shape" fill="#E9382B"></path>
                                            <path d="M8.91515837,1.7 C8.13564706,2.581 7.65950226,3.7335 7.65950226,5 C7.65950226,6.2665 8.13564706,7.4185 8.91515837,8.2995 C9.69466968,7.4185 10.1708145,6.267 10.1708145,5 C10.1708145,3.733 9.69466968,2.581 8.91515837,1.7 L8.91515837,1.7 Z" id="Shape" fill="#E9382B"></path>
                                            <path d="M12.672585,0 C11.1736879,0 9.83169874,0.66 8.91280964,1.7 C8.69574527,1.946 8.50575129,2.215 8.33931856,2.5 L9.48630071,2.5 C9.66877514,2.8125 9.810644,3.1495 9.92293596,3.5 L7.89566507,3.5 C7.79390048,3.8215 7.72020888,4.1545 7.68561895,4.5 L10.1314782,4.5 C10.1485225,4.665 10.1655668,4.83 10.1655668,5 C10.1655668,5.169 10.1555407,5.3355 10.1389977,5.5 L7.68511765,5.5 C7.71970758,5.8455 7.79339918,6.1785 7.89516377,6.5 L9.92845029,6.5 C9.81665964,6.852 9.66676993,7.186 9.48429549,7.5 L8.33881726,7.5 C8.50474868,7.784 8.69524397,8.0535 8.91230833,8.2995 C9.83119744,9.34 11.1731866,10 12.6720837,10 C15.440281,10 17.6851176,7.7605 17.6851176,5 C17.6856189,2.2385 15.4407823,0 12.672585,0 L12.672585,0 Z" id="Shape" fill="#F9E323"></path>
                                        </g>
                                    </g>
                                </g>
                            </g>
                        </g>
                    </g>
                </g>
            </g>
        </g>
    </g>
</svg>