<?xml version="1.0" encoding="UTF-8" standalone="no"?>
<svg width="30px" height="20px" viewBox="0 0 30 20" version="1.1" xmlns="http://www.w3.org/2000/svg" xmlns:xlink="http://www.w3.org/1999/xlink">
    <!-- Generator: sketchtool 3.6.1 (26313) - http://www.bohemiancoding.com/sketch -->
    <title>VISA</title>
    <desc>Created with sketchtool.</desc>
    <defs></defs>
    <g id="Redesigned" stroke="none" stroke-width="1" fill="none" fill-rule="evenodd">
        <g id="04-Contact---Desktop-HD" transform="translate(-1021.000000, -320.000000)">
            <g id="Redesign">
                <g id="Payment-details" transform="translate(0.000000, 236.000000)">
                    <g id="Fields" transform="translate(222.000000, 80.000000)">
                        <g id="Payment" transform="translate(530.000000, 0.000000)">
                            <g id="Title">
                                <g id="Card-Types" transform="translate(269.000000, 4.000000)">
                                    <g id="VISA">
                                        <path d="M30,17.5 C30,18.875 28.875,20 27.5,20 L2.5,20 C1.125,20 0,18.875 0,17.5 L0,2.5 C0,1.125 1.125,0 2.5,0 L27.5,0 C28.875,0 30,1.125 30,2.5 L30,17.5 L30,17.5 Z" id="Shape" fill="#F3F4F4"></path>
                                        <path d="M0,5 L0,2.5 C0,1.125 1.1637931,0 2.5862069,0 L27.4137931,0 C28.8362069,0 30,1.125 30,2.5 L30,5" id="Shape" fill="#4A5DB5"></path>
                                        <path d="M30,15 L30,17.7777778 C30,19.3055556 28.8362069,20 27.4137931,20 L2.5862069,20 C1.1637931,20 0,19.3055556 0,17.7777778 L0,15" id="Shape" fill="#EFAD35"></path>
                                        <g id="Group" transform="translate(7.533937, 7.000000)" fill="#4A5DB5">
                                            <path d="M1.57559729,4.6895 C1.77951584,4.1145 1.92266063,3.746 2.00704072,3.584 L3.70217647,0.1465 L4.94226244,0.1465 L2.00704072,5.8575 L0.696638009,5.8575 L0.198393665,0.1465 L1.3561086,0.1465 L1.55600905,3.584 C1.5660543,3.701 1.57157919,3.875 1.57157919,4.1035 C1.56555204,4.372 1.5580181,4.5675 1.54797285,4.6895 L1.57559729,4.6895 L1.57559729,4.6895 Z" id="Shape"></path>
                                            <path d="M4.42442986,5.8575 L5.6489457,0.1465 L6.8458371,0.1465 L5.62132127,5.8575 L4.42442986,5.8575 L4.42442986,5.8575 Z" id="Shape"></path>
                                            <path d="M10.514362,4.17 C10.514362,4.715 10.3199864,5.1445 9.93374661,5.461 C9.54650226,5.7775 9.02163801,5.9355 8.36015837,5.9355 C7.78155204,5.9355 7.31645701,5.8185 6.96336652,5.584 L6.96336652,4.5135 C7.46763801,4.7945 7.93675113,4.9355 8.36819457,4.9355 C8.66051131,4.9355 8.89004525,4.881 9.05478733,4.7695 C9.21952941,4.659 9.30190045,4.508 9.30190045,4.3145 C9.30190045,4.203 9.28432127,4.1045 9.2491629,4.0195 C9.21400452,3.9355 9.16277376,3.8565 9.0979819,3.783 C9.03218552,3.71 8.87045701,3.578 8.61128959,3.3845 C8.2501629,3.126 7.9960181,2.872 7.84985973,2.6185 C7.70269683,2.366 7.62986878,2.094 7.62986878,1.802 C7.62986878,1.466 7.71023077,1.1665 7.8729638,0.9015 C8.03469231,0.6375 8.26523077,0.432 8.56558371,0.2845 C8.86493213,0.1375 9.2089819,0.064 9.59974208,0.064 C10.1667964,0.064 10.686638,0.193 11.1577602,0.4505 L10.7298326,1.3605 C10.3219955,1.168 9.94529864,1.0715 9.59974208,1.0715 C9.38176018,1.0715 9.20446154,1.13 9.06633937,1.2475 C8.92721267,1.3645 8.85840271,1.52 8.85840271,1.7125 C8.85840271,1.8715 8.90159729,2.0105 8.98798643,2.1285 C9.07437557,2.247 9.26774661,2.404 9.56860181,2.599 C9.88452489,2.8075 10.122095,3.0375 10.2788009,3.2885 C10.4355068,3.541 10.514362,3.834 10.514362,4.17 L10.514362,4.17 Z" id="Shape"></path>
                                            <path d="M14.3637014,4.498 L12.5078416,4.498 L11.8328009,5.8575 L10.5771448,5.8575 L13.5826833,0.123 L15.046276,0.123 L15.6228733,5.8575 L14.4576244,5.8575 L14.3637014,4.498 L14.3637014,4.498 Z M14.3044344,3.4825 L14.2024751,2.1155 C14.1758552,1.7745 14.1632986,1.445 14.1632986,1.127 L14.1632986,0.9865 C14.0477783,1.299 13.9051357,1.63 13.735371,1.9785 L12.9975475,3.4825 L14.3044344,3.4825 L14.3044344,3.4825 Z" id="Shape"></path>
                                        </g>
                                    </g>
                                </g>
                            </g>
                        </g>
                    </g>
                </g>
            </g>
        </g>
    </g>
</svg>